<?xml version="1.0" encoding="UTF-8"?>
<svg id="Logo" xmlns="http://www.w3.org/2000/svg" version="1.1" viewBox="0 0 700 700">
  <defs>
    <style>
      .cls-1 {
        fill: #fff;
        stroke-width: 0px;
      }
    </style>
  </defs>
  <path id="Initiator" class="cls-1" d="M699.99,350.37C699.99,157.07,543.29.38,350,.38S.01,157.07.01,350.37C.01,514.5,113.01,652.22,265.45,690.05v-232.73h-72.17v-106.96h72.17v-46.09c0-119.12,53.91-174.34,170.86-174.34,22.18,0,60.44,4.35,76.09,8.69v96.95c-8.26-.87-22.61-1.3-40.43-1.3-57.38,0-79.56,21.74-79.56,78.26v37.83h114.32l-19.64,106.96h-94.68v240.47c173.3-20.93,307.58-168.48,307.58-347.43h-.01Z"/>
</svg>