<?xml version="1.0" encoding="UTF-8"?>
<svg id="Layer_1" data-name="Layer 1" xmlns="http://www.w3.org/2000/svg" version="1.1" viewBox="0 0 1005 1005">
  <defs>
    <style>
      .cls-1 {
        fill: #fff;
        stroke-width: 0px;
      }
    </style>
  </defs>
  <path class="cls-1" d="M1002.44,501.54c-.26-135.77-.87-152.78-3.4-206.1-2.53-53.23-11.05-89.53-23.47-121.32-12.85-32.87-29.99-60.7-57.82-88.45-27.83-27.72-55.76-44.8-88.68-57.48-31.82-12.31-68.17-20.7-121.39-23.01-53.33-2.36-70.35-2.88-206.14-2.62-135.76.26-152.79.84-206.12,3.4-53.2,2.51-89.53,11.03-121.29,23.48-32.87,12.81-60.73,29.98-88.45,57.82-27.75,27.84-44.79,55.76-57.51,88.66-12.31,31.83-20.65,68.19-23,121.42-2.34,53.33-2.87,70.34-2.61,206.12.26,135.75.86,152.8,3.4,206.14,2.54,53.19,11.03,89.51,23.48,121.28,12.83,32.87,29.98,60.72,57.83,88.45,27.83,27.74,55.76,44.76,88.68,57.5,31.8,12.29,68.17,20.67,121.39,23,53.33,2.35,70.35,2.87,206.09,2.61,135.81-.26,152.83-.86,206.16-3.39,53.2-2.54,89.51-11.06,121.29-23.47,32.87-12.86,60.74-29.99,88.45-57.84,27.72-27.83,44.77-55.76,57.48-88.68,12.32-31.8,20.69-68.17,23.01-121.35,2.33-53.37,2.88-70.41,2.62-206.17ZM909.83,703.74c-2.13,48.75-10.21,75.23-17.01,92.89-9.04,23.35-19.85,40.02-37.31,57.56-17.47,17.48-34.09,28.38-57.43,37.5-17.6,6.87-44.07,15.07-92.76,17.39-52.73,2.48-68.53,3.04-202.05,3.29-133.47.26-149.27-.25-202.01-2.53-48.75-2.12-75.22-10.22-92.86-17.01-23.36-9.04-40.03-19.88-57.58-37.29-17.51-17.48-28.38-34.11-37.5-57.42-6.85-17.64-15.1-44.08-17.38-92.83-2.48-52.69-3.05-68.51-3.29-202.01-.26-133.48.22-149.29,2.53-202.04,2.08-48.71,10.23-75.21,17.01-92.84,9.03-23.39,19.84-40.03,37.29-57.57,17.48-17.55,34.1-28.39,57.43-37.51,17.62-6.88,44.06-15.06,92.79-17.38,52.73-2.5,68.53-3.03,202-3.29,133.5-.26,149.31.21,202.06,2.53,48.71,2.12,75.22,10.19,92.83,17.01,23.37,9.04,40.04,19.81,57.57,37.29,17.53,17.48,28.4,34.07,37.52,57.45,6.89,17.57,15.07,44.04,17.37,92.76,2.51,52.73,3.08,68.54,3.32,202.02.26,133.5-.23,149.31-2.54,202.03Z"/>
  <path class="cls-1" d="M828.86,235c.05,33.11-26.76,60.02-59.89,60.09-33.12.06-60.04-26.75-60.11-59.86-.06-33.12,26.75-60.04,59.88-60.1,33.13-.07,60.05,26.76,60.12,59.87Z"/>
  <path class="cls-1" d="M501.99,245.76c-141.77.27-256.49,115.46-256.22,257.23.28,141.8,115.44,256.49,257.21,256.22,141.78-.28,256.54-115.41,256.27-257.21-.28-141.75-115.46-256.52-257.26-256.24ZM502.8,669.15c-92.02.18-166.8-74.29-166.97-166.34-.17-92.04,74.32-166.8,166.34-166.96,92.03-.18,166.81,74.28,166.99,166.33.18,92.05-74.31,166.79-166.36,166.97Z"/>
</svg>