<?xml version="1.0" encoding="UTF-8"?>
<svg id="Layer_1" data-name="Layer 1" xmlns="http://www.w3.org/2000/svg" version="1.1" viewBox="0 0 1005 1005">
  <defs>
    <style>
      .cls-1 {
        fill: #1a1a1a;
      }

      .cls-1, .cls-2 {
        stroke-width: 0px;
      }

      .cls-2 {
        fill: #fff;
      }
    </style>
  </defs>
  <path class="cls-1" d="M295.42,5.96c-53.2,2.51-89.54,11.03-121.29,23.47-32.87,12.81-60.73,29.99-88.45,57.82-27.75,27.85-44.79,55.76-57.51,88.66-12.31,31.83-20.66,68.19-23,121.42-2.33,53.33-2.87,70.34-2.61,206.12.26,135.76.86,152.8,3.4,206.15,2.54,53.19,11.03,89.51,23.47,121.28,12.83,32.87,29.99,60.72,57.83,88.45,27.83,27.73,55.76,44.76,88.68,57.49,31.8,12.3,68.17,20.67,121.39,23,53.33,2.35,70.36,2.87,206.1,2.61,135.8-.26,152.83-.86,206.16-3.39,53.2-2.54,89.5-11.06,121.29-23.47,32.87-12.86,60.73-29.99,88.45-57.83,27.72-27.83,44.76-55.76,57.48-88.68,12.31-31.8,20.69-68.17,23-121.36,2.33-53.36,2.88-70.41,2.62-206.16-.26-135.77-.87-152.78-3.4-206.1-2.53-53.23-11.05-89.54-23.47-121.32-12.85-32.87-29.99-60.7-57.82-88.45-27.83-27.72-55.76-44.79-88.68-57.48-31.82-12.31-68.17-20.7-121.39-23-53.33-2.37-70.36-2.88-206.14-2.62-135.76.26-152.78.84-206.11,3.4"/>
  <path class="cls-2" d="M301.26,909.84c-48.75-2.12-75.22-10.22-92.86-17.01-23.36-9.04-40.03-19.88-57.58-37.29-17.51-17.48-28.38-34.1-37.5-57.41-6.85-17.64-15.1-44.08-17.38-92.83-2.48-52.7-3.05-68.51-3.29-202.02-.26-133.47.23-149.29,2.53-202.03,2.09-48.71,10.24-75.22,17.01-92.84,9.04-23.39,19.84-40.03,37.29-57.58,17.48-17.54,34.1-28.38,57.43-37.5,17.63-6.89,44.06-15.07,92.79-17.38,52.73-2.5,68.53-3.03,202-3.29,133.5-.26,149.32.21,202.06,2.53,48.71,2.12,75.22,10.19,92.83,17.01,23.38,9.04,40.05,19.81,57.58,37.29,17.53,17.48,28.4,34.07,37.52,57.45,6.88,17.58,15.07,44.05,17.37,92.76,2.51,52.73,3.08,68.54,3.32,202.02.26,133.51-.23,149.32-2.54,202.03-2.12,48.75-10.21,75.23-17.01,92.89-9.04,23.34-19.85,40.01-37.31,57.56-17.46,17.48-34.08,28.38-57.43,37.5-17.59,6.87-44.06,15.07-92.76,17.38-52.73,2.48-68.53,3.05-202.05,3.29-133.47.26-149.27-.24-202.01-2.53"/>
  <path class="cls-1" d="M708.86,235.23c.06,33.11,26.99,59.92,60.1,59.86,33.13-.06,59.94-26.97,59.89-60.09-.07-33.11-26.99-59.94-60.12-59.88-33.13.06-59.94,26.99-59.88,60.1"/>
  <path class="cls-1" d="M245.77,502.99c.27,141.8,115.44,256.5,257.21,256.22,141.78-.28,256.54-115.41,256.27-257.21-.28-141.75-115.46-256.51-257.26-256.24-141.77.28-256.5,115.46-256.22,257.23"/>
  <path class="cls-2" d="M335.83,502.81c-.16-92.03,74.33-166.8,166.34-166.96,92.03-.18,166.81,74.28,166.99,166.33.18,92.05-74.31,166.8-166.36,166.98-92.02.18-166.8-74.29-166.97-166.34"/>
</svg>