<?xml version="1.0" encoding="UTF-8"?>
<svg id="Layer_1" data-name="Layer 1" xmlns="http://www.w3.org/2000/svg" version="1.1" viewBox="0 0 18 18">
  <defs>
    <style>
      .cls-1 {
        fill: none;
      }

      .cls-1, .cls-2 {
        stroke-width: 0px;
      }

      .cls-2 {
        fill: #fff;
      }
    </style>
  </defs>
  <path class="cls-2" d="M17.41.59c-.37-.38-.88-.59-1.41-.59H2C1.47,0,.96.21.59.59c-.38.37-.59.88-.59,1.41v14c0,.53.21,1.04.59,1.41.37.38.88.59,1.41.59h14c.53,0,1.04-.21,1.41-.59.38-.37.59-.88.59-1.41V2c0-.53-.21-1.04-.59-1.41ZM5.27,15.5h-2.77V7.13h2.77v8.37ZM5.07,5.07c-.32.31-.74.49-1.19.49-.93,0-1.69-.75-1.69-1.68,0-.45.18-.88.49-1.2.32-.31.75-.49,1.2-.49.93,0,1.68.76,1.68,1.69,0,.45-.18.87-.49,1.19ZM15.5,15.5h-2.79v-4.93c0-.37-.15-.73-.41-.99s-.62-.41-.99-.41c-.77,0-1.39.63-1.39,1.4v4.93h-2.79V7.13h2.79v1.11c.48-.78,1.47-1.3,2.32-1.3s1.69.34,2.31.95c.61.62.95,1.45.95,2.31v5.3Z"/>
  <path class="cls-1" d="M15.5,10.2v5.3h-2.79v-4.93c0-.37-.15-.73-.41-.99s-.62-.41-.99-.41c-.77,0-1.39.63-1.39,1.4v4.93h-2.79V7.13h2.79v1.11c.48-.78,1.47-1.3,2.32-1.3s1.69.34,2.31.95c.61.62.95,1.45.95,2.31Z"/>
  <rect class="cls-1" x="2.5" y="7.13" width="2.77" height="8.37"/>
  <path class="cls-1" d="M5.56,3.88c0,.45-.18.87-.49,1.19-.32.31-.74.49-1.19.49-.93,0-1.69-.75-1.69-1.68,0-.45.18-.88.49-1.2.32-.31.75-.49,1.2-.49.93,0,1.68.76,1.68,1.69Z"/>
</svg>