<svg width="416" height="1174" viewBox="0 0 416 1174" fill="none" xmlns="http://www.w3.org/2000/svg">
<g opacity="0.3">
<path fill-rule="evenodd" clip-rule="evenodd" d="M1 968L0.999967 207L1.49971 207C1.49971 92.677 94.1768 -4.11661e-06 208.5 -9.11382e-06C322.823 -1.4111e-05 415.5 92.677 415.5 207C415.5 211.873 415.331 216.707 415 221.497L415 952.003C415.331 956.793 415.5 961.627 415.5 966.5C415.5 1080.82 322.823 1173.5 208.5 1173.5C169.445 1173.5 132.916 1162.68 101.745 1143.88C100.954 1144.61 99.9703 1145.17 98.8163 1145.48L31.895 1163.41C26.69 1164.81 21.9271 1160.04 23.3218 1154.84L41.1395 1088.34C16.4842 1054.53 1.82423 1012.97 1.50507 968L1 968Z" fill="#F8C718"/>
<path fill-rule="evenodd" clip-rule="evenodd" d="M388 936.5C389.644 946.304 390.5 956.375 390.5 966.646C390.5 1066.69 309.31 1147.79 209.157 1147.79C109.004 1147.79 27.8138 1066.69 27.8138 966.646C27.8138 963.87 27.8763 961.109 28 958.364L28 210.136C27.8763 207.39 27.8138 204.629 27.8138 201.854C27.8138 101.81 109.004 20.7072 209.157 20.7072C309.31 20.7072 390.5 101.809 390.5 201.853C390.5 212.124 389.644 222.195 388 231.999L388 936.5Z" fill="#F8A918"/>
</g>
</svg>
