<svg width="1249" height="478" viewBox="0 0 1249 478" fill="none" xmlns="http://www.w3.org/2000/svg">
<g opacity="0.3">
<path fill-rule="evenodd" clip-rule="evenodd" d="M1042 2H207H206V2.00236C92.1371 2.54092 0 95.0106 0 209C0 322.989 92.1371 415.459 206 415.998V416H207H819.163L852.938 474.5C855.632 479.167 862.368 479.167 865.062 474.5L898.837 416H1042C1156.32 416 1249 323.323 1249 209C1249 94.6771 1156.32 2 1042 2Z" fill="#F8C718"/>
<path fill-rule="evenodd" clip-rule="evenodd" d="M239.141 389C230.334 390.317 221.319 391 212.146 391C112.102 391 31 309.81 31 209.657C31 109.504 112.102 28.3141 212.146 28.3141C217.491 28.3141 222.783 28.5459 228.011 29H1031.28C1036.51 28.5459 1041.8 28.3141 1047.15 28.3141C1147.19 28.3141 1228.29 109.504 1228.29 209.657C1228.29 309.81 1147.19 391 1047.15 391C1037.97 391 1028.96 390.317 1020.15 389H239.141Z" fill="#F8A918"/>
</g>
</svg>
