<svg width="1265" height="478" viewBox="0 0 1265 478" fill="none" xmlns="http://www.w3.org/2000/svg">
<g opacity="0.3" clip-path="url(#clip0_151_45)">
<path d="M1050 1.5H214V1.50236C100.137 2.04092 8 94.5106 8 208.5C8 322.489 100.137 414.959 214 415.498V415.5H827.163L860.938 474C863.632 478.667 870.368 478.667 873.062 474L906.837 415.5H1050C1164.32 415.5 1257 322.823 1257 208.5C1257 94.1771 1164.32 1.5 1050 1.5Z" fill="#F8C718"/>
<path d="M247.141 388C238.334 389.317 229.319 390 220.146 390C120.102 390 39 308.81 39 208.657C39 108.504 120.102 27.3141 220.146 27.3141C225.491 27.3141 230.783 27.5459 236.011 28H1039.28C1044.51 27.5459 1049.8 27.3141 1055.15 27.3141C1155.19 27.3141 1236.29 108.504 1236.29 208.657C1236.29 308.81 1155.19 390 1055.15 390C1045.97 390 1036.96 389.317 1028.15 388H247.141Z" fill="#F8A918"/>
</g>
<defs>
<clipPath id="clip0_151_45">
<rect width="1265" height="477.5" fill="white"/>
</clipPath>
</defs>
</svg>
