<?xml version="1.0" encoding="UTF-8"?>
<svg id="Layer_2" data-name="Layer 2" xmlns="http://www.w3.org/2000/svg" viewBox="0 0 739.08 864">
  <defs>
    <style>
      .cls-1 {
        fill: #669fd6;
      }

      .cls-1, .cls-2, .cls-3, .cls-4, .cls-5, .cls-6, .cls-7, .cls-8 {
        stroke-width: 0px;
      }

      .cls-2 {
        fill: #f8a81d;
      }

      .cls-3 {
        fill: #c2d4ed;
      }

      .cls-4 {
        fill: #0079c2;
      }

      .cls-5 {
        fill: #7b305b;
      }

      .cls-6 {
        fill: #ffe54d;
      }

      .cls-7 {
        fill: #e97d25;
      }

      .cls-8 {
        fill: #d81e54;
      }
    </style>
  </defs>
  <g id="Layer_1-2" data-name="Layer 1">
    <path class="cls-2" d="M276.72,811.66c-13.24-4.85-26.39-10.45-39.4-16.74-8.63-4.17-15.58-4.33-24.38-.63-53.61,22.57-107.46,44.55-161.25,66.68-2.47,1-5.11,1.54-10.19,3.03,5.19-21.05,9.71-39.61,14.34-58.15,9.97-39.92,19.82-79.88,30.1-119.71,1.97-7.57.91-13.17-3.85-19.58-26.74-36.11-47.34-74.75-61.18-115.94l104.09,15.62v.02c9.71,19.36,21.25,37.6,34.44,54.54l-38.49,154.41,121.61-50.67c9.97,29.73,21.38,58.8,34.16,87.12Z"/>
    <path class="cls-6" d="M125.01,566.24l-104.09-15.62c-9.67-28.75-16.03-58.72-18.87-89.94-6.27-68.54,1.88-132.43,24.51-191.34l92.58,13.91c-18.61,41.28-28.97,87.1-28.97,135.33,0,53.09,12.55,103.26,34.85,147.66Z"/>
    <path class="cls-2" d="M284.92,21.22c-18.89,39.64-35.07,80.81-48.33,123.28-51.02,34.18-91.99,82.23-117.46,138.75l-92.58-13.91c19.04-49.54,48.31-95.54,87.92-137.84,48.79-52.12,105.84-89.07,170.46-110.28Z"/>
    <path class="cls-7" d="M444.89,835.57c-57.83,4.09-113.95-3.96-168.17-23.91-12.77-28.32-24.19-57.38-34.16-87.12l28.3-11.79c39.07,19.82,82.62,32.09,128.71,34.88,13.33,30.35,28.47,59.71,45.31,87.93Z"/>
    <path class="cls-2" d="M719.25,706.52c-6.04,6.32-12.2,12.4-18.48,18.26l-35.37-86.28c6.25-6.97,12.22-14.21,17.85-21.7.04-.06.09-.11.13-.17,10.25-13.48,11.92-28.58,8.93-38.08,3.89,2.51,7.59,5.26,11.1,8.22,17.61,14.78,30.31,34.7,34.25,56.43,4.31,23.69-1.12,45.24-18.41,63.31Z"/>
    <path class="cls-7" d="M453.26,1.25c-17.59,28.21-33.47,57.57-47.49,87.97-62.46,2.62-120.42,22.61-169.17,55.28,13.26-42.47,29.44-83.64,48.33-123.28,27.09-8.89,55.52-15.02,85.24-18.35,28.45-3.18,56.14-3.7,83.1-1.62Z"/>
    <path class="cls-4" d="M589.33,799.55c-34.49,15.58-71.44,26.37-110.86,32.3-11.25,1.69-22.44,2.94-33.58,3.72-16.85-28.23-31.98-57.59-45.31-87.93,6.69.41,13.44.61,20.25.61,44.09,0,86.17-8.65,124.6-24.36,13.31,26.27,28.32,51.54,44.91,75.66Z"/>
    <path class="cls-1" d="M700.77,724.78c-33.73,31.5-70.88,56.45-111.44,74.77-16.59-24.12-31.59-49.39-44.91-75.66,46.62-19.04,87.9-48.46,120.98-85.39l35.37,86.28Z"/>
    <path class="cls-4" d="M596.83,40.35c-17.18,23.95-32.8,49.11-46.71,75.33-39.98-17.22-84.03-26.76-130.29-26.76-4.7,0-9.41.09-14.06.3,14.02-30.4,29.9-59.76,47.49-87.97,50.52,3.92,98.4,17.05,143.57,39.1Z"/>
    <path class="cls-1" d="M675.87,90.11l-63.54,60.84c-19.28-13.89-40.13-25.75-62.22-35.27,13.91-26.22,29.53-51.38,46.71-75.33,27.35,13.33,53.7,29.94,79.05,49.76Z"/>
    <path class="cls-3" d="M705.77,115.83l-38.03,85.48c-16.49-18.8-35.09-35.72-55.41-50.35l63.54-60.84c3.46,2.7,6.88,5.45,10.3,8.27,6.73,5.56,13.26,11.42,19.6,17.44Z"/>
    <path class="cls-8" d="M120.96,775.21l38.49-154.41c-13.18-16.94-24.73-35.18-34.44-54.54v-.02c-22.29-44.4-34.85-94.57-34.85-147.66,0-48.23,10.36-94.05,28.97-135.33,25.47-56.53,66.44-104.58,117.46-138.75-23.22,74.36-37.47,152.68-41.47,233.7-2.01,11.77-3.12,23.91-3.33,36.43-.2,13.31.69,26.31,2.6,38.92,1.93,65.86,10.65,130.03,25.46,191.84,3.53,14.75,7.42,29.36,11.64,43.83,3.46,11.88,7.16,23.65,11.06,35.33l-121.61,50.67Z"/>
    <path class="cls-5" d="M550.12,115.68c-15.55,29.29-28.95,59.91-40.02,91.62-45.61-18.87-97.01-22.39-144.78-10.82-38.57,9.32-74.79,28.45-103.7,57.22-35.85,35.66-58.41,77.15-66.49,124.51,4-81.02,18.24-159.34,41.47-233.7,48.75-32.67,106.71-52.66,169.17-55.28,4.65-.2,9.35-.3,14.06-.3,46.26,0,90.31,9.54,130.29,26.76Z"/>
    <path class="cls-8" d="M692.03,258.26c-.82.54-1.64,1.04-2.47,1.54-26.03,15.95-57.94,20.97-84.16,10-13.22-5.52-24.75-16.01-35.78-25.68-17.91-15.69-38.08-27.97-59.52-36.84,11.06-31.7,24.47-62.33,40.02-91.62,22.09,9.52,42.93,21.38,62.22,35.27,20.32,14.63,38.92,31.56,55.41,50.35,6.4,7.29,12.48,14.86,18.2,22.69v.02c.35.45.67.89,1,1.36,6.68,9.93,7.55,24.79,5.08,32.89Z"/>
    <path class="cls-6" d="M724.61,225.53c-5.8,9.26-13.13,17.5-21.44,24.47-3.55,2.99-7.27,5.75-11.14,8.26,2.47-8.11,1.6-22.96-5.08-32.89-.33-.46-.65-.91-1-1.36v-.02c-5.73-7.83-11.81-15.4-18.2-22.69l38.03-85.48c2.4,2.29,4.78,4.57,7.12,6.9,30.35,30.03,34.4,66.61,11.71,102.81Z"/>
    <path class="cls-5" d="M544.43,723.89c-38.44,15.71-80.51,24.36-124.6,24.36-6.81,0-13.56-.2-20.25-.61-46.1-2.79-89.64-15.06-128.71-34.88l-28.3,11.79c-3.9-11.68-7.61-23.45-11.06-35.33-4.22-14.47-8.11-29.08-11.64-43.83-14.8-61.81-23.52-125.98-25.46-191.84,13.95,92.27,82.08,163.74,166.72,185.87,8.42,2.21,17.03,3.94,25.75,5.13,42.99,5.89,82.73,1.39,119.15-13.35,10.47,32.06,23.35,63.02,38.4,92.69Z"/>
    <path class="cls-8" d="M683.39,616.64c-.04.06-.09.11-.13.17-5.63,7.49-11.6,14.73-17.85,21.7-33.08,36.93-74.36,66.35-120.98,85.39-15.04-29.68-27.93-60.64-38.4-92.69,27.63-11.16,53.35-28.21,77.19-51.04,19.71-18.89,44.12-22.29,70.1-17.37,13.11,2.47,25.62,7.48,36.85,14.39.73.46,1.43.91,2.14,1.38,2.99,9.5,1.32,24.6-8.93,38.08Z"/>
  </g>
</svg>